# xmcd CD database file
#
# Track frame offsets:
#	150
#	15473
#	29010
#	51633
#	73773
#	89265
#	109231
#	130709
#	143673
#	170436
#	187464
#
# Disc length: 2770 seconds
#
# Revision: 0
# Processed by: cddbd v1.5.2PL0 Copyright (c) Steve Scherf et al.
# Submitted via: CDex 1.51
#
DISCID=a30ad00b
DTITLE=Pamala Stanley - This Is the Moment
DYEAR=2006
DGENRE=Jazz
TTITLE0=This Is The Moment
TTITLE1=Donb't Rain On My Parade
TTITLE2=Send In The Clowns
TTITLE3=All I Ask Of You
TTITLE4=Defying Gravity
TTITLE5=For Good
TTITLE6=I Dreamed a Dream
TTITLE7=When I Geet My Name in Lights
TTITLE8=Don't Cry For Me, Argentina
TTITLE9=Bring On The Men
TTITLE10=Somewhere Over the Rainbow
EXTD=YEAR: 2006
EXTT0=
EXTT1=
EXTT2=
EXTT3=
EXTT4=
EXTT5=
EXTT6=
EXTT7=
EXTT8=
EXTT9=
EXTT10=
PLAYORDER=
